<svg width="25" height="25" viewBox="0 0 25 25" fill="none" xmlns="http://www.w3.org/2000/svg">
<g clip-path="url(#clip0_0_173)">
<path d="M16.1876 3.74049L4.91847 6.76004C4.02936 6.99828 3.50172 7.91217 3.73996 8.80128L6.75951 20.0704C6.99775 20.9595 7.91165 21.4872 8.80076 21.2489L20.0699 18.2294C20.959 17.9911 21.4866 17.0772 21.2484 16.1881L18.2288 4.919C17.9906 4.02989 17.0767 3.50225 16.1876 3.74049Z" stroke="white" stroke-width="1.66667" stroke-linecap="round" stroke-linejoin="round"/>
<path d="M9.24587 11.6397C9.91271 11.461 10.3084 10.7756 10.1298 10.1087C9.95108 9.4419 9.26566 9.04617 8.59883 9.22485C7.93199 9.40352 7.53626 10.0889 7.71494 10.7558C7.89362 11.4226 8.57904 11.8183 9.24587 11.6397Z" stroke="white" stroke-width="1.66667" stroke-linecap="round" stroke-linejoin="round"/>
<path d="M20.386 12.9683L15.2829 10.0221L8.8011 21.2489" stroke="white" stroke-width="1.66667" stroke-linecap="round" stroke-linejoin="round"/>
</g>
<defs>
<clipPath id="clip0_0_173">
<rect width="20" height="20" fill="white" transform="translate(0.24707 5.42358) rotate(-15)"/>
</clipPath>
</defs>
</svg>
